<svg width="37" height="37" viewBox="0 0 37 37" fill="none" xmlns="http://www.w3.org/2000/svg">
<circle cx="18.5" cy="18.5" r="18.5" fill="white"/>
<path fill-rule="evenodd" clip-rule="evenodd" d="M30.75 13.8827C30.75 13.8827 30.5055 12.1191 29.7563 11.3427C28.8055 10.323 27.7398 10.3182 27.2516 10.2591C23.7531 10 18.5055 10 18.5055 10H18.4945C18.4945 10 13.2469 10 9.74844 10.2591C9.25937 10.3182 8.19453 10.323 7.24297 11.3427C6.49375 12.1193 6.25 13.8827 6.25 13.8827C6.25 13.8827 6 15.9541 6 18.0246L6 19.9664C6 22.0377 6.25 24.1084 6.25 24.1084C6.25 24.1084 6.49375 25.8719 7.24297 26.6484C8.19453 27.6681 9.44375 27.6361 10 27.7425C12 27.9393 18.5 28 18.5 28C18.5 28 23.7531 27.9921 27.2516 27.733C27.7398 27.673 28.8055 27.6683 29.7563 26.6486C30.5055 25.8719 30.75 24.1086 30.75 24.1086C30.75 24.1086 31 22.0379 31 19.9664V18.0246C31 15.9541 30.75 13.8827 30.75 13.8827ZM15.9187 22.3194L15.918 15.1288L22.6727 18.7366L15.9187 22.3194Z" fill="#FF0000"/>
</svg>
