<svg width="37" height="37" viewBox="0 0 37 37" fill="none" xmlns="http://www.w3.org/2000/svg">
<circle cx="18.5" cy="18.5" r="18.5" fill="white"/>
<path fill-rule="evenodd" clip-rule="evenodd" d="M25.9483 12.4184C25.9483 13.1736 25.3361 13.7856 24.5812 13.7856C23.8262 13.7856 23.214 13.1736 23.214 12.4184C23.214 11.6633 23.8262 11.0513 24.5812 11.0513C25.3363 11.0513 25.9483 11.6633 25.9483 12.4184ZM18.4995 22.2977C16.4021 22.2977 14.7019 20.5974 14.7019 18.5C14.7019 16.4026 16.4021 14.7024 18.4995 14.7024C20.5969 14.7024 22.2972 16.4026 22.2972 18.5C22.2972 20.5974 20.5969 22.2977 18.4995 22.2977ZM18.4995 12.6495C15.2684 12.6495 12.649 15.2688 12.649 18.5C12.649 21.7312 15.2684 24.3506 18.4995 24.3506C21.7307 24.3506 24.3501 21.7312 24.3501 18.5C24.3501 15.2688 21.7307 12.6495 18.4995 12.6495ZM18.4995 9.15983C21.5417 9.15983 21.902 9.1714 23.1033 9.22623C24.2141 9.27696 24.8174 9.46246 25.2188 9.61858C25.7505 9.82526 26.1301 10.0722 26.5288 10.4709C26.9276 10.8695 27.1745 11.249 27.3812 11.781C27.5371 12.1824 27.7228 12.7857 27.7735 13.8965C27.8284 15.0979 27.8399 15.4583 27.8399 18.5004C27.8399 21.5425 27.8284 21.9028 27.7735 23.1041C27.7228 24.2149 27.5373 24.8182 27.3812 25.2197C27.1745 25.7514 26.9276 26.1309 26.5288 26.5297C26.1303 26.9284 25.7507 27.1753 25.2188 27.382C24.8174 27.538 24.2141 27.7236 23.1033 27.7744C21.902 27.8292 21.5417 27.8408 18.4995 27.8408C15.4572 27.8408 15.0969 27.8292 13.8957 27.7744C12.7848 27.7236 12.1815 27.5381 11.7801 27.382C11.2484 27.1753 10.8688 26.9284 10.4701 26.5297C10.0715 26.1311 9.82441 25.7516 9.61773 25.2197C9.46179 24.8182 9.27612 24.2149 9.22538 23.1041C9.17055 21.9027 9.15898 21.5423 9.15898 18.5004C9.15898 15.4583 9.17055 15.0979 9.22538 13.8965C9.27612 12.7857 9.46161 12.1824 9.61773 11.781C9.82441 11.2492 10.0713 10.8697 10.4701 10.4709C10.8687 10.0722 11.2482 9.82526 11.7801 9.61858C12.1815 9.46264 12.7848 9.27696 13.8957 9.22623C15.0971 9.1714 15.4574 9.15983 18.4995 9.15983ZM18.4995 7.10693C15.4054 7.10693 15.0174 7.12011 13.8022 7.17547C12.5896 7.23083 11.7612 7.42345 11.0367 7.70507C10.2874 7.99613 9.65209 8.38581 9.01871 9.01919C8.38532 9.65258 7.99564 10.2879 7.70458 11.0372C7.42296 11.7619 7.23035 12.59 7.17498 13.8027C7.11962 15.0178 7.10645 15.4059 7.10645 18.5C7.10645 21.5942 7.11962 21.9822 7.17498 23.1974C7.23035 24.41 7.42296 25.2382 7.70458 25.9629C7.99564 26.7121 8.38532 27.3475 9.01871 27.9809C9.65209 28.6143 10.2874 29.0038 11.0367 29.295C11.7614 29.5766 12.5896 29.7692 13.8022 29.8246C15.0174 29.88 15.4054 29.8931 18.4995 29.8931C21.5937 29.8931 21.9817 29.88 23.1969 29.8246C24.4095 29.7692 25.2377 29.5766 25.9624 29.295C26.7117 29.0038 27.347 28.6143 27.9804 27.9809C28.6138 27.3475 29.0033 26.7121 29.2945 25.9629C29.5761 25.2382 29.7687 24.41 29.8241 23.1974C29.8795 21.9822 29.8926 21.5942 29.8926 18.5C29.8926 15.4059 29.8795 15.0178 29.8241 13.8027C29.7687 12.59 29.5761 11.7619 29.2945 11.0372C29.0033 10.2879 28.6138 9.65258 27.9804 9.01919C27.347 8.38581 26.7117 7.99631 25.9624 7.70507C25.2377 7.42345 24.4095 7.23083 23.1969 7.17547C21.9817 7.12011 21.5937 7.10693 18.4995 7.10693Z" fill="#060416"/>
</svg>
