<svg width="37" height="37" viewBox="0 0 37 37" fill="none" xmlns="http://www.w3.org/2000/svg">
<circle cx="18.5" cy="18.5" r="18.5" fill="white"/>
<path d="M18.6458 25.1845C18.9631 25.122 19.5341 24.997 19.5341 24.2469C19.5341 24.2469 19.4707 22.3717 20.3589 22.1217C21.2472 21.8717 22.3893 23.9344 23.5948 24.7469C24.483 25.3095 25.181 25.247 25.181 25.247L28.4168 25.1845C28.4168 25.1845 30.0664 25.0595 29.3051 23.7469C29.2416 23.6218 28.734 22.8093 26.8306 21.1216C24.8637 19.2465 25.181 19.559 27.5285 16.3712C28.9878 14.4335 29.6223 13.2459 29.4319 12.8084C29.1782 12.3708 28.163 12.4333 28.163 12.4333H24.5465C24.1658 12.4333 23.9754 12.4958 23.7851 12.8084C23.7851 12.8084 23.2141 14.371 22.4527 15.6211C20.8665 18.3089 20.232 18.4339 19.9148 18.2464C19.3438 17.9338 19.4707 16.7462 19.4707 15.9337C19.4707 13.1209 19.9148 12.1208 18.6458 11.8708C17.821 11.7458 14.9024 11.6208 14.0142 12.0583C13.57 12.3083 13.3162 12.7459 13.5066 12.8084C13.6969 12.8084 14.2679 12.8709 14.5852 13.2459C15.0928 14.0585 15.1562 17.9338 14.4583 18.3089C13.5066 18.9964 11.0956 14.4335 10.5245 12.9334C10.3976 12.5584 10.2073 12.4958 9.76316 12.3708H6.27354C5.89285 12.3708 5.32182 12.4333 5.57561 13.1834C7.2887 16.6837 10.8418 25.247 17.25 25.1845H18.6458Z" fill="#060416"/>
</svg>
