<svg  xmlns="http://www.w3.org/2000/svg" xmlns:xlink="http://www.w3.org/1999/xlink">
<symbol id="icon-menu" width="37" height="15" viewBox="0 0 37 15" fill="none" xmlns="http://www.w3.org/2000/svg">
<path d="M2 2H35M35 13H13.8462" stroke="white" stroke-width="2.5" stroke-linecap="round"/>
</symbol>
<symbol id="icon-play" width="16" height="16" viewBox="0 0 16 16" fill="none" xmlns="http://www.w3.org/2000/svg">
<path d="M7.89837 14.7967C11.7082 14.7967 14.7967 11.7082 14.7967 7.89837C14.7967 4.08851 11.7082 1 7.89837 1C4.08851 1 1 4.08851 1 7.89837C1 11.7082 4.08851 14.7967 7.89837 14.7967Z" stroke="#4C4C4C" stroke-width="1.30726" stroke-linecap="round"/>
<path d="M6.51855 5.82318C6.51855 5.53059 6.84465 5.35607 7.0881 5.51837L10.2004 7.59321C10.4179 7.73821 10.4179 8.05783 10.2004 8.20283L7.0881 10.2777C6.84465 10.44 6.51855 10.2655 6.51855 9.97286V5.82318Z" stroke="#4C4C4C" stroke-width="1.30726" stroke-linecap="round"/>
</symbol>
<symbol id="icon-sound" width="19" height="15" viewBox="0 0 19 15" fill="none" xmlns="http://www.w3.org/2000/svg">
<path d="M8.81247 2.62648C8.81247 1.87618 7.92743 1.47657 7.36463 1.97276L4.66498 4.35286C4.50579 4.4932 4.30086 4.57064 4.08864 4.57064H1.77385C1.29253 4.57064 0.902344 4.96082 0.902344 5.44214V9.51066C0.902344 9.99198 1.29253 10.3822 1.77385 10.3822H4.08864C4.30086 10.3822 4.50579 10.4596 4.66498 10.5999L7.36463 12.98C7.92743 13.4762 8.81247 13.0766 8.81247 12.3263V2.62648Z" stroke="#4C4C4C" stroke-width="1.30726" stroke-linecap="round"/>
<path d="M17.9997 4.65088L12.3496 10.301" stroke="#4C4C4C" stroke-width="1.30726" stroke-linecap="round"/>
<path d="M12.3496 4.65088L17.9997 10.301" stroke="#4C4C4C" stroke-width="1.30726" stroke-linecap="round"/>
</symbol>
<symbol id="icon-wide" width="15" height="14" viewBox="0 0 15 14" fill="none" xmlns="http://www.w3.org/2000/svg">
<path d="M4.76651 0.73291V2.80883C4.76651 3.17588 4.6207 3.52789 4.36116 3.78743C4.10162 4.04697 3.74961 4.19278 3.38256 4.19278H1.30664M13.7622 4.19278H11.6863C11.3192 4.19278 10.9672 4.04697 10.7077 3.78743C10.4481 3.52789 10.3023 3.17588 10.3023 2.80883V0.73291M10.3023 13.1884V11.1125C10.3023 10.7455 10.4481 10.3935 10.7077 10.1339C10.9672 9.87438 11.3192 9.72857 11.6863 9.72857H13.7622M1.30664 9.72857H3.38256C3.74961 9.72857 4.10162 9.87438 4.36116 10.1339C4.6207 10.3935 4.76651 10.7455 4.76651 11.1125V13.1884" stroke="#4C4C4C" stroke-width="1.30726" stroke-linecap="round"/>
</symbol>
<symbol id="icon-youtube" width="37" height="37" viewBox="0 0 37 37" fill="none" xmlns="http://www.w3.org/2000/svg">
<circle cx="18.5" cy="18.5" r="18.5" fill="white"/>
<path fill-rule="evenodd" clip-rule="evenodd" d="M30.75 13.8827C30.75 13.8827 30.5055 12.1191 29.7563 11.3427C28.8055 10.323 27.7398 10.3182 27.2516 10.2591C23.7531 10 18.5055 10 18.5055 10H18.4945C18.4945 10 13.2469 10 9.74844 10.2591C9.25937 10.3182 8.19453 10.323 7.24297 11.3427C6.49375 12.1193 6.25 13.8827 6.25 13.8827C6.25 13.8827 6 15.9541 6 18.0246L6 19.9664C6 22.0377 6.25 24.1084 6.25 24.1084C6.25 24.1084 6.49375 25.8719 7.24297 26.6484C8.19453 27.6681 9.44375 27.6361 10 27.7425C12 27.9393 18.5 28 18.5 28C18.5 28 23.7531 27.9921 27.2516 27.733C27.7398 27.673 28.8055 27.6683 29.7563 26.6486C30.5055 25.8719 30.75 24.1086 30.75 24.1086C30.75 24.1086 31 22.0379 31 19.9664V18.0246C31 15.9541 30.75 13.8827 30.75 13.8827ZM15.9187 22.3194L15.918 15.1288L22.6727 18.7366L15.9187 22.3194Z" fill="#FF0000"/>
</symbol>
<symbol id="icon-telegram" width="37" height="37" viewBox="0 0 37 37" fill="none" xmlns="http://www.w3.org/2000/svg">
<circle cx="18.5" cy="18.5" r="18.5" fill="white"/>
<path d="M13.1389 21.8483L22.8264 28.6965C23.831 29.3191 24.6921 28.9732 24.9792 27.7281L28.9259 9.88109C29.2847 8.35925 28.2801 7.66751 27.2037 8.15173L4.16893 16.7293C2.66198 17.2827 2.66198 18.182 3.88189 18.5279L9.83792 20.3264L23.4722 11.9563C24.118 11.6104 24.6921 11.7488 24.2616 12.233" fill="#060416"/>
</symbol>
<symbol id="icon-instagram" width="37" height="37" viewBox="0 0 37 37" fill="none" xmlns="http://www.w3.org/2000/svg">
<circle cx="18.5" cy="18.5" r="18.5" fill="white"/>
<path fill-rule="evenodd" clip-rule="evenodd" d="M25.9483 12.4184C25.9483 13.1736 25.3361 13.7856 24.5812 13.7856C23.8262 13.7856 23.214 13.1736 23.214 12.4184C23.214 11.6633 23.8262 11.0513 24.5812 11.0513C25.3363 11.0513 25.9483 11.6633 25.9483 12.4184ZM18.4995 22.2977C16.4021 22.2977 14.7019 20.5974 14.7019 18.5C14.7019 16.4026 16.4021 14.7024 18.4995 14.7024C20.5969 14.7024 22.2972 16.4026 22.2972 18.5C22.2972 20.5974 20.5969 22.2977 18.4995 22.2977ZM18.4995 12.6495C15.2684 12.6495 12.649 15.2688 12.649 18.5C12.649 21.7312 15.2684 24.3506 18.4995 24.3506C21.7307 24.3506 24.3501 21.7312 24.3501 18.5C24.3501 15.2688 21.7307 12.6495 18.4995 12.6495ZM18.4995 9.15983C21.5417 9.15983 21.902 9.1714 23.1033 9.22623C24.2141 9.27696 24.8174 9.46246 25.2188 9.61858C25.7505 9.82526 26.1301 10.0722 26.5288 10.4709C26.9276 10.8695 27.1745 11.249 27.3812 11.781C27.5371 12.1824 27.7228 12.7857 27.7735 13.8965C27.8284 15.0979 27.8399 15.4583 27.8399 18.5004C27.8399 21.5425 27.8284 21.9028 27.7735 23.1041C27.7228 24.2149 27.5373 24.8182 27.3812 25.2197C27.1745 25.7514 26.9276 26.1309 26.5288 26.5297C26.1303 26.9284 25.7507 27.1753 25.2188 27.382C24.8174 27.538 24.2141 27.7236 23.1033 27.7744C21.902 27.8292 21.5417 27.8408 18.4995 27.8408C15.4572 27.8408 15.0969 27.8292 13.8957 27.7744C12.7848 27.7236 12.1815 27.5381 11.7801 27.382C11.2484 27.1753 10.8688 26.9284 10.4701 26.5297C10.0715 26.1311 9.82441 25.7516 9.61773 25.2197C9.46179 24.8182 9.27612 24.2149 9.22538 23.1041C9.17055 21.9027 9.15898 21.5423 9.15898 18.5004C9.15898 15.4583 9.17055 15.0979 9.22538 13.8965C9.27612 12.7857 9.46161 12.1824 9.61773 11.781C9.82441 11.2492 10.0713 10.8697 10.4701 10.4709C10.8687 10.0722 11.2482 9.82526 11.7801 9.61858C12.1815 9.46264 12.7848 9.27696 13.8957 9.22623C15.0971 9.1714 15.4574 9.15983 18.4995 9.15983ZM18.4995 7.10693C15.4054 7.10693 15.0174 7.12011 13.8022 7.17547C12.5896 7.23083 11.7612 7.42345 11.0367 7.70507C10.2874 7.99613 9.65209 8.38581 9.01871 9.01919C8.38532 9.65258 7.99564 10.2879 7.70458 11.0372C7.42296 11.7619 7.23035 12.59 7.17498 13.8027C7.11962 15.0178 7.10645 15.4059 7.10645 18.5C7.10645 21.5942 7.11962 21.9822 7.17498 23.1974C7.23035 24.41 7.42296 25.2382 7.70458 25.9629C7.99564 26.7121 8.38532 27.3475 9.01871 27.9809C9.65209 28.6143 10.2874 29.0038 11.0367 29.295C11.7614 29.5766 12.5896 29.7692 13.8022 29.8246C15.0174 29.88 15.4054 29.8931 18.4995 29.8931C21.5937 29.8931 21.9817 29.88 23.1969 29.8246C24.4095 29.7692 25.2377 29.5766 25.9624 29.295C26.7117 29.0038 27.347 28.6143 27.9804 27.9809C28.6138 27.3475 29.0033 26.7121 29.2945 25.9629C29.5761 25.2382 29.7687 24.41 29.8241 23.1974C29.8795 21.9822 29.8926 21.5942 29.8926 18.5C29.8926 15.4059 29.8795 15.0178 29.8241 13.8027C29.7687 12.59 29.5761 11.7619 29.2945 11.0372C29.0033 10.2879 28.6138 9.65258 27.9804 9.01919C27.347 8.38581 26.7117 7.99631 25.9624 7.70507C25.2377 7.42345 24.4095 7.23083 23.1969 7.17547C21.9817 7.12011 21.5937 7.10693 18.4995 7.10693Z" fill="#060416"/>
</symbol>
<symbol id="icon-vk" width="37" height="37" viewBox="0 0 37 37" fill="none" xmlns="http://www.w3.org/2000/svg">
<circle cx="18.5" cy="18.5" r="18.5" fill="white"/>
<path d="M18.6458 25.1845C18.9631 25.122 19.5341 24.997 19.5341 24.2469C19.5341 24.2469 19.4707 22.3717 20.3589 22.1217C21.2472 21.8717 22.3893 23.9344 23.5948 24.7469C24.483 25.3095 25.181 25.247 25.181 25.247L28.4168 25.1845C28.4168 25.1845 30.0664 25.0595 29.3051 23.7469C29.2416 23.6218 28.734 22.8093 26.8306 21.1216C24.8637 19.2465 25.181 19.559 27.5285 16.3712C28.9878 14.4335 29.6223 13.2459 29.4319 12.8084C29.1782 12.3708 28.163 12.4333 28.163 12.4333H24.5465C24.1658 12.4333 23.9754 12.4958 23.7851 12.8084C23.7851 12.8084 23.2141 14.371 22.4527 15.6211C20.8665 18.3089 20.232 18.4339 19.9148 18.2464C19.3438 17.9338 19.4707 16.7462 19.4707 15.9337C19.4707 13.1209 19.9148 12.1208 18.6458 11.8708C17.821 11.7458 14.9024 11.6208 14.0142 12.0583C13.57 12.3083 13.3162 12.7459 13.5066 12.8084C13.6969 12.8084 14.2679 12.8709 14.5852 13.2459C15.0928 14.0585 15.1562 17.9338 14.4583 18.3089C13.5066 18.9964 11.0956 14.4335 10.5245 12.9334C10.3976 12.5584 10.2073 12.4958 9.76316 12.3708H6.27354C5.89285 12.3708 5.32182 12.4333 5.57561 13.1834C7.2887 16.6837 10.8418 25.247 17.25 25.1845H18.6458Z" fill="#060416"/>
</symbol>
</svg>